<svg width="16" height="16" viewBox="0 0 16 16" fill="none" xmlns="http://www.w3.org/2000/svg">
<path fill-rule="evenodd" clip-rule="evenodd" d="M4.92319 4.3482C4.03157 5.23428 3.82416 6.13619 4.01112 7.0342C4.20874 7.98341 4.86563 9.00359 5.86597 10.0041C6.86635 11.0046 7.88641 11.6623 8.83618 11.8612C9.73528 12.0495 10.6382 11.8434 11.526 10.9546C11.54 10.9406 11.5545 10.9272 11.5697 10.9145C11.5699 10.9143 11.5705 10.9139 11.571 10.9134L11.5747 10.9101C11.578 10.9071 11.5823 10.9032 11.5877 10.8981C11.5985 10.8877 11.6119 10.8745 11.6274 10.8586C11.6585 10.8267 11.6936 10.7884 11.7276 10.7489C11.7621 10.7088 11.7915 10.672 11.8128 10.6428C11.8218 10.6306 11.8274 10.6223 11.8304 10.6177C11.8499 10.5718 11.86 10.5224 11.86 10.4724C11.86 10.4181 11.8481 10.3645 11.8251 10.3153C11.8022 10.2661 11.7687 10.2226 11.7272 10.1878C11.7121 10.1752 11.6975 10.1618 11.6836 10.1479L10.9216 9.38529C10.7838 9.24739 10.6983 9.21084 10.666 9.2012C10.6444 9.19474 10.6269 9.19302 10.5888 9.20579C10.5377 9.22291 10.4595 9.26451 10.3442 9.35517C10.2302 9.44488 10.1118 9.55647 9.96679 9.69533C9.63176 10.0275 9.17901 10.2141 8.70694 10.2141C8.23216 10.2141 7.77692 10.0254 7.44133 9.68961L6.19397 8.4414C6.19391 8.44135 6.19402 8.44146 6.19397 8.4414C5.92346 8.17086 5.647 7.78815 5.60576 7.2984C5.5621 6.78004 5.7934 6.31 6.19375 5.90957C6.19368 5.90964 6.19382 5.90949 6.19375 5.90957L6.49754 5.60549C6.58305 5.51972 6.63136 5.40321 6.63136 5.28185C6.63136 5.13672 6.5918 5.05258 6.52194 4.9826L5.72814 4.18824C5.64949 4.10954 5.58769 4.08127 5.54704 4.06958C5.50493 4.05748 5.45508 4.05457 5.3912 4.06766C5.24905 4.09677 5.07419 4.19928 4.92319 4.3482ZM5.12366 2.76144C5.63998 2.65569 6.20282 2.77697 6.67128 3.24576L7.46534 4.04038C7.81637 4.39205 7.9647 4.83099 7.9647 5.28185C7.9647 5.75637 7.77647 6.21158 7.44121 6.54745L7.13699 6.85194C6.92395 7.06499 6.93302 7.17095 6.93434 7.18594C6.93432 7.18577 6.93436 7.18615 6.93434 7.18594C6.93781 7.22719 6.96971 7.33153 7.13678 7.49859L8.38442 8.74708C8.47004 8.83275 8.58606 8.8808 8.70694 8.8808C8.82781 8.8808 8.94383 8.83275 9.02945 8.74708L9.03982 8.73693C9.05048 8.72672 9.06137 8.71626 9.07251 8.70557C9.3284 8.45987 9.70895 8.09449 10.165 7.94161C10.4328 7.85183 10.7329 7.82963 11.0477 7.92366C11.3518 8.01452 11.6215 8.19942 11.8647 8.44283L12.6084 9.18709C12.7878 9.34333 12.9326 9.53549 13.0333 9.75125C13.1387 9.97705 13.1933 10.2232 13.1933 10.4724C13.1933 10.7216 13.1387 10.9678 13.0333 11.1936C12.9582 11.3545 12.8227 11.5204 12.7384 11.6185C12.6508 11.7202 12.544 11.8334 12.4513 11.9148C11.2652 13.0924 9.91706 13.4499 8.56284 13.1662C7.25239 12.8917 6.00996 12.0339 4.92309 10.9468C3.83618 9.85974 2.97866 8.6167 2.70577 7.30596C2.42228 5.94428 2.78811 4.58974 3.98426 3.40153L3.98564 3.40015C4.25253 3.13659 4.64854 2.85875 5.12366 2.76144Z" fill="#6A7282"/>
</svg>
