<svg width="16" height="16" viewBox="0 0 16 16" fill="none" xmlns="http://www.w3.org/2000/svg">
<path fill-rule="evenodd" clip-rule="evenodd" d="M12.4304 3.5274C12.6914 3.78709 12.6925 4.2092 12.4328 4.4702L8.94062 7.97988L12.4727 11.5297C12.7324 11.7907 12.7314 12.2129 12.4704 12.4726C12.2094 12.7322 11.7873 12.7312 11.5276 12.4702L8.00016 8.92506L4.47275 12.4702C4.21305 12.7312 3.79094 12.7322 3.52994 12.4726C3.26894 12.2129 3.26788 11.7907 3.52758 11.5297L7.0597 7.97988L3.56757 4.47021C3.30787 4.2092 3.30893 3.7871 3.56993 3.5274C3.83093 3.2677 4.25304 3.26876 4.51273 3.52976L8.00016 7.0347L11.4876 3.52976C11.7473 3.26876 12.1694 3.2677 12.4304 3.5274Z" fill="#6A7282"/>
</svg>
